<svg width="24" height="24" viewBox="0 0 24 24" fill="none" xmlns="http://www.w3.org/2000/svg">
<g clip-path="url(#clip0_102_1325)">
<path d="M16.8857 4.57764e-05C20.7843 4.57764e-05 23.9446 3.16038 23.9446 7.05884C23.9446 10.9573 20.7843 14.1175 16.8857 14.1175C15.665 14.1175 14.5166 13.8076 13.515 13.2622C15.091 11.6684 16.0641 9.47729 16.0641 7.05884C16.0641 4.64034 15.091 2.44917 13.515 0.855322C14.5166 0.30995 15.665 4.77344e-05 16.8857 4.57764e-05Z" fill="black"/>
<path d="M0.000237465 7.05891C0.000237295 3.1604 3.16057 3.9851e-06 7.05903 3.8147e-06C10.9575 1.54575e-05 14.1177 3.1604 14.1177 7.05891C14.1177 8.23723 13.829 9.348 13.3184 10.3246C11.717 8.69097 9.48548 7.67742 7.01716 7.67742C4.57692 7.67742 2.36808 8.66813 0.770778 10.2692C0.278128 9.30613 0.000239488 8.21497 0.000237465 7.05891Z" fill="black"/>
<path d="M7.0589 24.0001C3.16039 24.0001 -6.12861e-07 20.8397 -9.53674e-07 16.9413C1.05188e-05 13.0428 3.1604 9.88251 7.0589 9.88251C8.27968 9.88251 9.428 10.1925 10.4296 10.7379C8.85368 12.3317 7.88058 14.5228 7.88052 16.9413C7.88052 19.3597 8.85368 21.5509 10.4296 23.1448C9.428 23.6901 8.27968 24.0001 7.0589 24.0001Z" fill="black"/>
<path d="M24.0001 16.8857C24.0001 20.7843 20.8397 23.9446 16.9413 23.9446C13.0428 23.9446 9.88251 20.7843 9.88251 16.8857C9.88251 15.665 10.1925 14.5166 10.7379 13.515C12.3317 15.091 14.5228 16.0641 16.9413 16.0641C19.3597 16.0641 21.5509 15.091 23.1448 13.515C23.6901 14.5166 24.0001 15.665 24.0001 16.8857Z" fill="black"/>
</g>
<defs>
<clipPath id="clip0_102_1325">
<rect width="24" height="24" fill="white"/>
</clipPath>
</defs>
</svg>
